<svg xmlns="http://www.w3.org/2000/svg" width="15.063" height="19" viewBox="0 0 15.063 19">
  <metadata><?xpacket begin="﻿" id="W5M0MpCehiHzreSzNTczkc9d"?>
<x:xmpmeta xmlns:x="adobe:ns:meta/" x:xmptk="Adobe XMP Core 5.6-c140 79.160451, 2017/05/06-01:08:21        ">
   <rdf:RDF xmlns:rdf="http://www.w3.org/1999/02/22-rdf-syntax-ns#">
      <rdf:Description rdf:about=""/>
   </rdf:RDF>
</x:xmpmeta>
                                                                                                    
                                                                                                    
                                                                                                    
                                                                                                    
                                                                                                    
                                                                                                    
                                                                                                    
                                                                                                    
                                                                                                    
                                                                                                    
                                                                                                    
                                                                                                    
                                                                                                    
                                                                                                    
                                                                                                    
                                                                                                    
                                                                                                    
                                                                                                    
                                                                                                    
                                                                                                    
                           
<?xpacket end="w"?></metadata>
<defs>
    <style>
      .cls-1 {
        fill: #170823;
        fill-rule: evenodd;
      }
    </style>
  </defs>
  <path class="cls-1" d="M80.049,2134.14a7.088,7.088,0,0,1,.248-2.87,7.376,7.376,0,0,1,7-5.22v-1.95a0.141,0.141,0,0,1,.229-0.1l4.086,2.95a0.115,0.115,0,0,1,0,.19l-4.082,2.95a0.14,0.14,0,0,1-.229-0.1v-1.95a5.359,5.359,0,0,0-4.839,3.23,5.089,5.089,0,0,0-.414,2.3,5.19,5.19,0,0,0,1.166,2.99,0.986,0.986,0,0,1-.193,1.43,1.044,1.044,0,0,1-1.411-.19A7.114,7.114,0,0,1,80.049,2134.14Zm11.8-3.75a5.131,5.131,0,0,1,.753,5.3,5.35,5.35,0,0,1-4.839,3.22v-1.95a0.141,0.141,0,0,0-.229-0.1l-4.086,2.95a0.125,0.125,0,0,0,0,.2l4.082,2.95a0.147,0.147,0,0,0,.229-0.11v-1.95a7.363,7.363,0,0,0,7-5.21,7.208,7.208,0,0,0,.248-2.88,7.045,7.045,0,0,0-1.556-3.65,1.036,1.036,0,0,0-1.411-.2A0.988,0.988,0,0,0,91.847,2130.39Z" transform="translate(-80 -2124)"/>
</svg>
