<svg xmlns="http://www.w3.org/2000/svg" viewBox="0 0 526.9 257"><path d="M0 42.1L131 0v214.9L0 257V42.1z" fill="#e93749"/><path d="M502.7 187.6v46.5h-43.8v-46.5h-89.7v-32.7c4.4-8.8 9.9-18.8 16.5-29.8s13.9-22.5 22-34.2 16.6-23.1 25.6-34.3c9-11.2 18-21.3 27-30.3h42.3V151h22.2v36.6h-22.1zM458.9 80.8c-7.8 10.2-16.1 21.3-24.9 33.3-8.8 12-16.2 24.3-22.2 36.9h47.1V80.8zM278 238.3c-23.4 0-41.8-9.3-55.1-28-13.3-18.7-19.9-45.5-19.9-80.6 0-17.4 1.7-32.8 5.2-46.2 3.5-13.4 8.5-24.7 15.1-33.9s14.5-16.2 23.7-21c9.2-4.8 19.5-7.2 30.9-7.2 23.4 0 41.7 9.4 55 28 13.3 18.7 20 45.5 20 80.2 0 35-6.7 61.9-20 80.6-13.2 18.7-31.5 28.1-54.9 28.1zm27.9-137c-1-8.5-2.6-15.8-4.8-22.1-2.2-6.2-5.2-11-9-14.4-3.8-3.4-8.5-5.1-14.1-5.1s-10.3 1.7-14 5.1c-3.7 3.4-6.7 8.2-9 14.4-2.3 6.2-4 13.6-4.9 22.1-1 8.5-1.5 18-1.5 28.4 0 10.4.5 19.9 1.5 28.5 1 8.6 2.6 16 4.9 22.2 2.3 6.2 5.3 11 9 14.4 3.7 3.4 8.3 5.1 14 5.1 5.6 0 10.3-1.7 14.1-5.1 3.8-3.4 6.8-8.2 9-14.4 2.2-6.2 3.8-13.6 4.8-22.2s1.5-18.1 1.5-28.5c0-10.4-.5-19.9-1.5-28.4zm-144 132.8h-43.8v-46.5H28.4v-32.7c4.4-8.8 9.9-18.8 16.5-29.8s14-22.5 22.1-34.2 16.6-23.1 25.6-34.3c9-11.2 18-21.3 27-30.3h42.3V151h22.2v36.6h-22.2v46.5zM118.1 80.8c-7.8 10.2-16.1 21.3-24.9 33.3-8.8 12-16.2 24.3-22.2 36.9h47.1V80.8z" fill="#fff"/></svg>