<?xml version="1.0" encoding="utf-8"?>
<!-- Generator: Adobe Illustrator 16.0.0, SVG Export Plug-In . SVG Version: 6.00 Build 0)  -->
<!DOCTYPE svg PUBLIC "-//W3C//DTD SVG 1.1//EN" "http://www.w3.org/Graphics/SVG/1.1/DTD/svg11.dtd">
<svg version="1.1" id="Слой_1" xmlns="http://www.w3.org/2000/svg" xmlns:xlink="http://www.w3.org/1999/xlink" x="0px" y="0px"
	 width="179.25px" height="50.5px" viewBox="0 0 179.25 50.5" enable-background="new 0 0 179.25 50.5" xml:space="preserve">
<rect x="-458.75" y="-405.75" display="none" width="910" height="621"/>
<g>
	<g>
		<path fill="#FFFFFF" d="M64.493,26.338c-0.208-0.063-0.6-0.176-1.176-0.336s-0.952-0.271-1.128-0.336l-0.768-0.264
			c-0.464-0.192-0.696-0.448-0.696-0.768c0-0.736,0.735-1.104,2.208-1.104c0.928,0,1.92,0.159,2.976,0.479
			c1.024,0.305,1.912,0.688,2.664,1.152V21.01c-1.744-0.928-3.64-1.392-5.688-1.392s-3.66,0.44-4.836,1.319
			c-1.176,0.881-1.764,2.121-1.764,3.721c0,0.88,0.2,1.703,0.6,2.472c0.224,0.384,0.768,0.896,1.632,1.536
			c0.24,0.16,0.608,0.336,1.104,0.527l1.104,0.433l1.224,0.36l1.512,0.455c0.624,0.209,0.984,0.353,1.08,0.433
			c0.432,0.304,0.648,0.632,0.648,0.983c0,0.881-0.856,1.32-2.568,1.32c-1.104,0-2.256-0.224-3.456-0.672
			c-1.248-0.464-2.208-1.008-2.88-1.632v4.416c1.744,1.2,3.912,1.8,6.504,1.8c2.032,0,3.68-0.488,4.944-1.464
			c1.28-0.991,1.92-2.304,1.92-3.937c0-1.455-0.456-2.575-1.368-3.359C67.356,27.53,66.092,26.866,64.493,26.338z M83.38,25.93
			h-6.336v-5.976h-4.32v16.8h4.32V29.77h6.336v6.984h4.32v-16.8h-4.32V25.93z M99.844,19.618c-2.544,0-4.656,0.848-6.336,2.544
			c-1.68,1.695-2.52,3.76-2.52,6.191c0,2.433,0.84,4.497,2.52,6.192c1.68,1.696,3.792,2.544,6.336,2.544
			c2.544,0,4.656-0.848,6.336-2.544c1.68-1.695,2.52-3.76,2.52-6.192c0-2.432-0.84-4.496-2.52-6.191
			C104.5,20.466,102.388,19.618,99.844,19.618z M102.988,31.762c-0.848,0.896-1.896,1.344-3.144,1.344
			c-1.265,0-2.32-0.447-3.168-1.344c-0.833-0.879-1.248-2.016-1.248-3.408c0-1.392,0.416-2.527,1.248-3.408
			c0.848-0.896,1.903-1.344,3.168-1.344c1.248,0,2.295,0.448,3.144,1.344c0.848,0.896,1.272,2.033,1.272,3.408
			C104.26,29.73,103.836,30.866,102.988,31.762z M127.972,29.962l-3.504-10.056h-3.36l-3.504,10.056l-2.832-10.008h-4.824
			l5.568,16.896h3.84l3.408-9.84l3.36,9.84h3.792l5.616-16.896h-4.728L127.972,29.962z M149.428,27.466
			c0.56-0.255,1.028-0.672,1.404-1.247c0.376-0.576,0.564-1.248,0.564-2.017c0-1.345-0.476-2.388-1.428-3.132
			c-0.952-0.744-2.22-1.116-3.804-1.116h-8.184v16.8h8.64c1.824,0,3.272-0.439,4.344-1.32c1.104-0.896,1.656-2.063,1.656-3.504
			c0-1.199-0.328-2.199-0.984-3C150.996,28.146,150.259,27.658,149.428,27.466z M142.3,23.458h3.216c0.528,0,0.948,0.132,1.26,0.396
			c0.312,0.265,0.468,0.629,0.468,1.092c0,0.449-0.156,0.801-0.468,1.057s-0.732,0.385-1.26,0.385H142.3V23.458z M147.328,32.686
			c-0.376,0.313-0.892,0.469-1.548,0.469h-3.48v-3.576h3.48c0.64,0,1.152,0.16,1.536,0.48c0.384,0.319,0.576,0.76,0.576,1.319
			S147.704,32.374,147.328,32.686z M155.763,36.754h4.321v-16.8h-4.321V36.754z M168.821,32.962l7.992-9.96v-3.048h-13.512v3.792
			h7.704l-8.017,9.936v3.072h14.209v-3.792H168.821z"/>
	</g>
</g>
<path fill-rule="evenodd" clip-rule="evenodd" fill="#FFFFFF" d="M37.764,2.256l-9.002,3.963v40.02l9.002-3.914V2.256z"/>
<path fill-rule="evenodd" clip-rule="evenodd" fill="#FFFFFF" d="M11.77,24.271L2.768,28.25v18.032l9.002-3.638V24.271z"/>
<path fill-rule="evenodd" clip-rule="evenodd" fill="#FFFFFF" d="M24.735,15.465l-8.969,3.992v27l8.969-3.942V15.465z"/>
<g display="none">
	<g display="inline">
		<path fill="#00FF6C" d="M28.761,46.129l9.002-3.914V2.146l-9.002,3.963V46.129z M15.766,46.348l8.969-3.942v-27.05l-8.969,3.992
			V46.348z M2.768,46.173l9.002-3.638V24.161l-9.002,3.979V46.173z M64.49,26.225c-0.208-0.063-0.6-0.176-1.176-0.336
			s-0.952-0.271-1.128-0.336l-0.768-0.264c-0.464-0.192-0.696-0.448-0.696-0.768c0-0.736,0.735-1.104,2.208-1.104
			c0.928,0,1.92,0.159,2.976,0.479c1.024,0.305,1.912,0.688,2.664,1.152v-4.152c-1.744-0.928-3.64-1.392-5.688-1.392
			s-3.66,0.44-4.836,1.319c-1.176,0.881-1.764,2.121-1.764,3.721c0,0.88,0.2,1.703,0.6,2.472c0.224,0.384,0.768,0.896,1.632,1.536
			c0.24,0.16,0.608,0.336,1.104,0.527l1.104,0.433l1.224,0.36l1.512,0.455c0.624,0.209,0.984,0.353,1.08,0.433
			c0.432,0.304,0.648,0.632,0.648,0.983c0,0.881-0.856,1.32-2.568,1.32c-1.104,0-2.256-0.224-3.456-0.672
			c-1.248-0.464-2.208-1.008-2.88-1.632v4.416c1.744,1.2,3.912,1.8,6.504,1.8c2.032,0,3.68-0.488,4.944-1.464
			c1.28-0.991,1.92-2.304,1.92-3.937c0-1.455-0.456-2.575-1.368-3.359C67.354,27.417,66.09,26.753,64.49,26.225z M83.378,25.816
			h-6.336v-5.976h-4.32v16.8h4.32v-6.984h6.336v6.984h4.32v-16.8h-4.32V25.816z M99.842,19.505c-2.544,0-4.656,0.848-6.336,2.544
			c-1.68,1.695-2.52,3.76-2.52,6.191c0,2.433,0.84,4.497,2.52,6.192c1.68,1.696,3.792,2.544,6.336,2.544
			c2.544,0,4.656-0.848,6.336-2.544c1.68-1.695,2.52-3.76,2.52-6.192c0-2.432-0.84-4.496-2.52-6.191
			C104.498,20.353,102.386,19.505,99.842,19.505z M102.985,31.648c-0.848,0.896-1.896,1.344-3.144,1.344
			c-1.265,0-2.32-0.447-3.168-1.344c-0.833-0.879-1.248-2.016-1.248-3.408c0-1.392,0.416-2.527,1.248-3.408
			c0.848-0.896,1.903-1.344,3.168-1.344c1.248,0,2.295,0.448,3.144,1.344c0.848,0.896,1.272,2.033,1.272,3.408
			C104.258,29.617,103.833,30.753,102.985,31.648z M127.969,29.849l-3.504-10.056h-3.36l-3.504,10.056l-2.832-10.008h-4.824
			l5.568,16.896h3.84l3.408-9.84l3.36,9.84h3.792l5.616-16.896h-4.728L127.969,29.849z M149.425,27.353
			c0.56-0.255,1.028-0.672,1.404-1.247c0.376-0.576,0.564-1.248,0.564-2.017c0-1.345-0.476-2.388-1.428-3.132
			c-0.952-0.744-2.22-1.116-3.804-1.116h-8.184v16.8h8.64c1.824,0,3.272-0.439,4.344-1.32c1.104-0.896,1.656-2.063,1.656-3.504
			c0-1.199-0.328-2.199-0.984-3C150.993,28.033,150.257,27.545,149.425,27.353z M142.297,23.345h3.216
			c0.528,0,0.948,0.132,1.26,0.396c0.312,0.265,0.468,0.629,0.468,1.092c0,0.449-0.156,0.801-0.468,1.057s-0.732,0.385-1.26,0.385
			h-3.216V23.345z M147.325,32.572c-0.376,0.313-0.892,0.469-1.548,0.469h-3.48v-3.576h3.48c0.64,0,1.152,0.16,1.536,0.48
			c0.384,0.319,0.576,0.76,0.576,1.319S147.701,32.261,147.325,32.572z M155.761,36.641h4.32v-16.8h-4.32V36.641z M168.816,32.849
			l7.992-9.96v-3.048h-13.512v3.792h7.704l-8.017,9.936v3.072h14.209v-3.792H168.816z"/>
	</g>
</g>
</svg>
