<svg xmlns="http://www.w3.org/2000/svg" width="50" height="50" viewBox="0 0 50 50">
  <defs>
    <style>
      .cls-1 {
        fill-rule: evenodd;
      }
    </style>
  </defs>
  <path id="Forma_1" data-name="Forma 1" class="cls-1" d="M983.867,1259.33l-13.04-13.03a19.555,19.555,0,1,0-5.525,5.52l3.6,3.6h0l9.433,9.43A3.905,3.905,0,1,0,983.867,1259.33Zm-19.025-9.57h0a17.565,17.565,0,1,1,3.927-3.92A17.435,17.435,0,0,1,964.842,1249.76Zm2.05,0.89a19.864,19.864,0,0,0,2.762-2.77l2.772,2.78a24.737,24.737,0,0,1-2.762,2.76Zm15.594,12.82a1.959,1.959,0,0,1-2.763,0l-8.674-8.67a25.706,25.706,0,0,0,2.762-2.76l8.675,8.67A1.951,1.951,0,0,1,982.486,1263.47Zm-27.953-43.57a15.625,15.625,0,1,0,15.63,15.63A15.647,15.647,0,0,0,954.533,1219.9Zm0,29.3a13.67,13.67,0,1,1,13.676-13.67A13.687,13.687,0,0,1,954.533,1249.2Z" transform="translate(-935 -1216)"/>
</svg>
