<svg xmlns="http://www.w3.org/2000/svg" width="30.031" height="23" viewBox="0 0 30.031 23">
  <defs>
    <style>
      .cls-1 {
        fill: #28d07b;
        fill-rule: evenodd;
      }
    </style>
  </defs>
  <path id="Forma_1_copy_20" data-name="Forma 1 copy 20" class="cls-1" d="M719.346,516.65a1.111,1.111,0,0,1,0-1.611l1.615-1.61a1.119,1.119,0,0,1,1.616,0l0.115,0.115,6.346,6.786a0.559,0.559,0,0,0,.808,0l15.461-15.986h0.116a1.118,1.118,0,0,1,1.615,0l1.615,1.61a1.108,1.108,0,0,1,0,1.61h0l-18.461,19.091a1.118,1.118,0,0,1-1.615,0l-9-9.66Z" transform="translate(-719 -504)"/>
</svg>
