<svg xmlns="http://www.w3.org/2000/svg" width="30" height="30" viewBox="0 0 30 30">
  <metadata><?xpacket begin="﻿" id="W5M0MpCehiHzreSzNTczkc9d"?>
<x:xmpmeta xmlns:x="adobe:ns:meta/" x:xmptk="Adobe XMP Core 5.6-c140 79.160451, 2017/05/06-01:08:21        ">
   <rdf:RDF xmlns:rdf="http://www.w3.org/1999/02/22-rdf-syntax-ns#">
      <rdf:Description rdf:about=""/>
   </rdf:RDF>
</x:xmpmeta>
                                                                                                    
                                                                                                    
                                                                                                    
                                                                                                    
                                                                                                    
                                                                                                    
                                                                                                    
                                                                                                    
                                                                                                    
                                                                                                    
                                                                                                    
                                                                                                    
                                                                                                    
                                                                                                    
                                                                                                    
                                                                                                    
                                                                                                    
                                                                                                    
                                                                                                    
                                                                                                    
                           
<?xpacket end="w"?></metadata>
<defs>
    <style>
      .cls-1 {
        fill-rule: evenodd;
      }
    </style>
  </defs>
  <path id="Forma_1" data-name="Forma 1" class="cls-1" d="M1079,2833a15,15,0,1,0,15,15A15.005,15.005,0,0,0,1079,2833Zm7.61,16.62c0.7,0.69,1.44,1.33,2.07,2.08a5.617,5.617,0,0,1,.73,1.07,0.76,0.76,0,0,1-.46,1.19h-3.08a2.388,2.388,0,0,1-1.95-.8c-0.43-.43-0.82-0.89-1.23-1.34a3.167,3.167,0,0,0-.55-0.49,0.644,0.644,0,0,0-1.03.25,3.185,3.185,0,0,0-.32,1.43,0.823,0.823,0,0,1-.98.95,7.937,7.937,0,0,1-4.4-.95,9.666,9.666,0,0,1-2.96-2.77,37.492,37.492,0,0,1-3.89-6.94c-0.25-.55-0.07-0.84.54-0.85q1.5-.03,3,0a0.885,0.885,0,0,1,.84.62,18.9,18.9,0,0,0,2.04,3.78,3.284,3.284,0,0,0,.77.85,0.465,0.465,0,0,0,.79-0.24,2.391,2.391,0,0,0,.18-0.79,11.757,11.757,0,0,0-.05-2.78,1.151,1.151,0,0,0-.98-1.06c-0.3-.05-0.25-0.16-0.11-0.33a1.107,1.107,0,0,1,.94-0.47h3.47a0.832,0.832,0,0,1,.75.9v3.86a1.124,1.124,0,0,0,.49.99,0.681,0.681,0,0,0,.69-0.34,11.727,11.727,0,0,0,1.96-3.01c0.23-.47.44-0.96,0.63-1.46a0.771,0.771,0,0,1,.79-0.54l3.34,0.01a1.514,1.514,0,0,1,.3.02,0.571,0.571,0,0,1,.54.88,8.179,8.179,0,0,1-1.33,2.31c-0.56.77-1.15,1.51-1.7,2.29A1.044,1.044,0,0,0,1086.61,2849.62Z" transform="translate(-1064 -2833)"/>
</svg>
