<svg xmlns="http://www.w3.org/2000/svg" width="26" height="26" viewBox="0 0 26 26">
  <metadata><?xpacket begin="﻿" id="W5M0MpCehiHzreSzNTczkc9d"?>
<x:xmpmeta xmlns:x="adobe:ns:meta/" x:xmptk="Adobe XMP Core 5.6-c140 79.160451, 2017/05/06-01:08:21        ">
   <rdf:RDF xmlns:rdf="http://www.w3.org/1999/02/22-rdf-syntax-ns#">
      <rdf:Description rdf:about=""/>
   </rdf:RDF>
</x:xmpmeta>
                                                                                                    
                                                                                                    
                                                                                                    
                                                                                                    
                                                                                                    
                                                                                                    
                                                                                                    
                                                                                                    
                                                                                                    
                                                                                                    
                                                                                                    
                                                                                                    
                                                                                                    
                                                                                                    
                                                                                                    
                                                                                                    
                                                                                                    
                                                                                                    
                                                                                                    
                                                                                                    
                           
<?xpacket end="w"?></metadata>
<defs>
    <style>
      .cls-1 {
        fill: #b4a067;
        fill-rule: evenodd;
      }
    </style>
  </defs>
  <path id="Forma_1_copy" data-name="Forma 1 copy" class="cls-1" d="M191,885H191a12.991,12.991,0,0,0-10.522,20.619l-1.62,4.83,5-1.6A12.882,12.882,0,0,0,191,911,13,13,0,0,0,191,885Zm7.564,18.357a3.667,3.667,0,0,1-2.551,1.835c-0.679.144-1.566,0.26-4.553-.978-3.82-1.583-6.281-5.465-6.472-5.717a7.423,7.423,0,0,1-1.544-3.921,4.149,4.149,0,0,1,1.329-3.164,1.89,1.89,0,0,1,1.329-.466c0.161,0,.306.008,0.436,0.014a0.755,0.755,0,0,1,.825.642c0.314,0.756,1.078,2.621,1.169,2.813a0.777,0.777,0,0,1,.055.7,2.242,2.242,0,0,1-.421.6c-0.192.221-.374,0.39-0.565,0.627a0.612,0.612,0,0,0-.153.81,11.568,11.568,0,0,0,2.109,2.62,9.572,9.572,0,0,0,3.049,1.881,0.821,0.821,0,0,0,.916-0.145,15.961,15.961,0,0,0,1.016-1.345,0.725,0.725,0,0,1,.932-0.283c0.352,0.122,2.209,1.04,2.591,1.23a1.877,1.877,0,0,1,.726.443A3.236,3.236,0,0,1,198.567,903.357Z" transform="translate(-178 -885)"/>
</svg>
