<svg xmlns="http://www.w3.org/2000/svg" width="26" height="26" viewBox="0 0 26 26">
  <metadata><?xpacket begin="﻿" id="W5M0MpCehiHzreSzNTczkc9d"?>
<x:xmpmeta xmlns:x="adobe:ns:meta/" x:xmptk="Adobe XMP Core 5.6-c140 79.160451, 2017/05/06-01:08:21        ">
   <rdf:RDF xmlns:rdf="http://www.w3.org/1999/02/22-rdf-syntax-ns#">
      <rdf:Description rdf:about=""/>
   </rdf:RDF>
</x:xmpmeta>
                                                                                                    
                                                                                                    
                                                                                                    
                                                                                                    
                                                                                                    
                                                                                                    
                                                                                                    
                                                                                                    
                                                                                                    
                                                                                                    
                                                                                                    
                                                                                                    
                                                                                                    
                                                                                                    
                                                                                                    
                                                                                                    
                                                                                                    
                                                                                                    
                                                                                                    
                                                                                                    
                           
<?xpacket end="w"?></metadata>
<defs>
    <style>
      .cls-1 {
        fill: #fff;
        fill-rule: evenodd;
      }
    </style>
  </defs>
  <path id="Forma_1" data-name="Forma 1" class="cls-1" d="M146.914,899.882a12.057,12.057,0,0,0-13.8-13.8,7.291,7.291,0,0,0-10.032,10.033,12.287,12.287,0,0,0-.147,1.882,12.072,12.072,0,0,0,13.944,11.915A7.29,7.29,0,0,0,146.914,899.882Zm-6.188,3.6a4.991,4.991,0,0,1-2.239,1.721,8.9,8.9,0,0,1-3.481.62,8.324,8.324,0,0,1-3.984-.847,5.158,5.158,0,0,1-1.814-1.632,3.539,3.539,0,0,1-.7-2,1.325,1.325,0,0,1,.431-0.988,1.528,1.528,0,0,1,1.094-.41,1.371,1.371,0,0,1,.916.32,2.453,2.453,0,0,1,.627.934,5.9,5.9,0,0,0,.662,1.188,2.616,2.616,0,0,0,.992.777,3.908,3.908,0,0,0,1.69.308,4.04,4.04,0,0,0,2.339-.62,1.8,1.8,0,0,0,.887-1.53,1.534,1.534,0,0,0-.473-1.175,3.153,3.153,0,0,0-1.251-.7q-0.774-.246-2.079-0.521a16.289,16.289,0,0,1-2.934-.891,4.765,4.765,0,0,1-1.889-1.4,3.48,3.48,0,0,1-.7-2.214,3.606,3.606,0,0,1,.741-2.236,4.618,4.618,0,0,1,2.136-1.5,9.3,9.3,0,0,1,3.269-.522,8.7,8.7,0,0,1,2.6.345,5.722,5.722,0,0,1,1.825.922,3.941,3.941,0,0,1,1.065,1.212,2.655,2.655,0,0,1,.339,1.246,1.453,1.453,0,0,1-.431,1.018,1.422,1.422,0,0,1-1.074.451,1.3,1.3,0,0,1-.893-0.275,3.547,3.547,0,0,1-.647-0.871,3.882,3.882,0,0,0-1.047-1.311,3.224,3.224,0,0,0-1.956-.464,3.6,3.6,0,0,0-2.02.508,1.439,1.439,0,0,0-.756,1.2,1.152,1.152,0,0,0,.253.745,2.145,2.145,0,0,0,.713.55,5.054,5.054,0,0,0,.929.365c0.315,0.09.839,0.219,1.568,0.39q1.37,0.3,2.487.657a7.8,7.8,0,0,1,1.9.878,3.7,3.7,0,0,1,1.235,1.317,3.944,3.944,0,0,1,.444,1.947A4.223,4.223,0,0,1,140.726,903.484Z" transform="translate(-122 -885)"/>
</svg>
