<?xml version="1.0" encoding="utf-8"?>
<!-- Generator: Adobe Illustrator 16.0.0, SVG Export Plug-In . SVG Version: 6.00 Build 0)  -->
<!DOCTYPE svg PUBLIC "-//W3C//DTD SVG 1.1//EN" "http://www.w3.org/Graphics/SVG/1.1/DTD/svg11.dtd">
<svg version="1.1" id="Слой_1" xmlns="http://www.w3.org/2000/svg" xmlns:xlink="http://www.w3.org/1999/xlink" x="0px" y="0px"
	 width="70.834px" height="70.5px" viewBox="0 0 70.834 70.5" enable-background="new 0 0 70.834 70.5" xml:space="preserve">
<path fill="#120919" d="M64.174,28.427l-4.563-0.774c-0.475-1.534-1.086-3.014-1.833-4.426l2.688-3.761
	c1.141-1.603,0.964-3.789-0.435-5.174l-4.046-4.046c-0.761-0.761-1.766-1.182-2.838-1.182c-0.842,0-1.644,0.258-2.322,0.747
	l-3.775,2.688c-1.466-0.773-3-1.412-4.589-1.887l-0.761-4.508c-0.326-1.942-1.996-3.354-3.965-3.354H32.02
	c-1.969,0-3.639,1.412-3.965,3.354l-0.787,4.617c-1.521,0.475-3.001,1.099-4.413,1.86L19.12,9.892
	c-0.679-0.489-1.493-0.747-2.336-0.747c-1.072,0-2.091,0.422-2.838,1.182l-4.06,4.046c-1.385,1.385-1.575,3.571-0.435,5.173
	l2.716,3.815c-0.747,1.426-1.345,2.906-1.807,4.44l-4.508,0.76C3.912,28.888,2.5,30.558,2.5,32.527v5.716
	c0,1.969,1.412,3.64,3.354,3.966l4.617,0.787c0.475,1.521,1.1,3.001,1.86,4.413L9.656,51.13c-1.141,1.602-0.965,3.788,0.434,5.173
	l4.047,4.046c0.761,0.761,1.766,1.183,2.838,1.183c0.842,0,1.643-0.259,2.322-0.747l3.815-2.716c1.371,0.72,2.811,1.304,4.291,1.765
	l0.76,4.563c0.326,1.941,1.996,3.354,3.966,3.354h5.729c1.969,0,3.64-1.413,3.965-3.354l0.774-4.563
	c1.534-0.476,3.015-1.086,4.427-1.832l3.761,2.688c0.68,0.489,1.494,0.747,2.336,0.747l0,0c1.072,0,2.077-0.421,2.838-1.182
	l4.046-4.046c1.386-1.386,1.575-3.571,0.435-5.173l-2.688-3.775c0.747-1.427,1.372-2.905,1.833-4.427l4.563-0.761
	c1.942-0.325,3.354-1.996,3.354-3.965v-5.717C67.527,30.422,66.115,28.752,64.174,28.427z M63.861,38.107
	c0,0.177-0.122,0.326-0.299,0.353l-5.703,0.951c-0.719,0.123-1.289,0.651-1.466,1.345c-0.517,1.996-1.304,3.91-2.363,5.688
	c-0.366,0.625-0.339,1.398,0.082,1.996l3.354,4.726c0.095,0.136,0.082,0.34-0.04,0.462l-4.047,4.047
	c-0.095,0.095-0.19,0.108-0.258,0.108c-0.082,0-0.149-0.027-0.204-0.067l-4.712-3.354c-0.583-0.421-1.371-0.448-1.996-0.082
	c-1.778,1.06-3.693,1.847-5.689,2.362c-0.706,0.177-1.235,0.762-1.344,1.467l-0.964,5.703c-0.027,0.177-0.177,0.299-0.354,0.299
	h-5.716c-0.177,0-0.326-0.122-0.354-0.299l-0.95-5.703c-0.123-0.72-0.652-1.29-1.345-1.467c-1.941-0.502-3.815-1.275-5.567-2.28
	c-0.285-0.163-0.61-0.245-0.923-0.245c-0.367,0-0.747,0.109-1.06,0.34l-4.753,3.381c-0.067,0.041-0.136,0.068-0.203,0.068
	c-0.055,0-0.163-0.014-0.258-0.109l-4.047-4.045c-0.122-0.123-0.136-0.313-0.04-0.463l3.34-4.685
	c0.421-0.597,0.448-1.385,0.081-2.01c-1.059-1.765-1.873-3.679-2.39-5.675c-0.189-0.693-0.76-1.223-1.466-1.345l-5.744-0.978
	c-0.177-0.027-0.299-0.177-0.299-0.354v-5.716c0-0.177,0.122-0.326,0.299-0.354l5.662-0.951c0.72-0.122,1.304-0.651,1.48-1.357
	c0.502-1.997,1.276-3.924,2.321-5.703c0.367-0.625,0.326-1.399-0.095-1.982l-3.381-4.753c-0.096-0.136-0.082-0.339,0.041-0.462
	l4.046-4.046c0.095-0.095,0.19-0.109,0.258-0.109c0.082,0,0.149,0.028,0.204,0.069l4.685,3.339c0.598,0.422,1.385,0.448,2.01,0.083
	c1.765-1.06,3.68-1.875,5.676-2.39c0.692-0.19,1.222-0.761,1.344-1.466l0.978-5.744c0.027-0.177,0.177-0.299,0.354-0.299h5.717
	c0.177,0,0.326,0.122,0.354,0.299l0.95,5.662c0.122,0.72,0.651,1.304,1.357,1.48c2.051,0.516,4.006,1.317,5.825,2.389
	c0.625,0.367,1.398,0.34,1.996-0.081l4.685-3.368c0.068-0.041,0.136-0.068,0.204-0.068c0.054,0,0.163,0.014,0.258,0.109l4.047,4.046
	c0.121,0.122,0.135,0.312,0.04,0.461l-3.354,4.711c-0.421,0.584-0.448,1.372-0.082,1.997c1.06,1.778,1.847,3.693,2.363,5.689
	c0.177,0.706,0.76,1.236,1.466,1.345l5.703,0.964c0.177,0.027,0.299,0.177,0.299,0.353v5.717H63.861z"/>
<path fill="#E93749" d="M35,21.224c-7.739,0-14.026,6.286-14.026,14.025c0,7.74,6.287,14.027,14.026,14.027
	c7.74,0,14.027-6.287,14.027-14.027C49.027,27.51,42.74,21.224,35,21.224z M35,45.61c-5.717,0-10.36-4.643-10.36-10.361
	c0-5.716,4.644-10.359,10.36-10.359s10.36,4.644,10.36,10.359C45.36,40.968,40.717,45.61,35,45.61z"/>
</svg>
