<?xml version="1.0" encoding="utf-8"?>
<!-- Generator: Adobe Illustrator 16.0.0, SVG Export Plug-In . SVG Version: 6.00 Build 0)  -->
<!DOCTYPE svg PUBLIC "-//W3C//DTD SVG 1.1//EN" "http://www.w3.org/Graphics/SVG/1.1/DTD/svg11.dtd">
<svg version="1.1" id="Слой_1" xmlns="http://www.w3.org/2000/svg" xmlns:xlink="http://www.w3.org/1999/xlink" x="0px" y="0px"
	 width="75.167px" height="70.5px" viewBox="0 0 75.167 70.5" enable-background="new 0 0 75.167 70.5" xml:space="preserve">
<path class="path1" d="M67.456,7H8.545C6.315,7,4.5,8.823,4.5,11.065v40.886c0,2.242,1.814,4.065,4.044,4.065h20.187v2.959
	c0,2.712-2.195,4.918-4.893,4.918H19.39c-0.853,0-1.544,0.695-1.544,1.553s0.691,1.553,1.544,1.553H56.61
	c0.854,0,1.545-0.695,1.545-1.553s-0.691-1.553-1.545-1.553h-4.449c-2.697,0-4.893-2.206-4.893-4.918v-2.959h20.187
	c2.23,0,4.045-1.823,4.045-4.065V11.065C71.501,8.823,69.687,7,67.456,7z M30.138,63.895c1.053-1.359,1.683-3.065,1.683-4.919
	v-2.959H44.18v2.959c0,1.854,0.63,3.56,1.683,4.919H30.138z M68.411,51.951c0,0.53-0.429,0.961-0.955,0.961H8.545
	c-0.527,0-0.956-0.431-0.956-0.961v-8.16h60.822V51.951z M68.411,40.687H7.589V11.065c0-0.529,0.429-0.96,0.956-0.96h58.911
	c0.526,0,0.955,0.431,0.955,0.96V40.687L68.411,40.687z"/>
<g>
	<g>
		<path class="path2" d="M37.667,46.773c-0.921,0-1.667,0.75-1.667,1.676c0,0.925,0.746,1.676,1.667,1.676
			c0.92,0,1.666-0.751,1.666-1.676C39.333,47.523,38.587,46.773,37.667,46.773z M40.314,17.793c-0.604-0.606-1.581-0.606-2.184,0
			L27.215,28.766c-0.603,0.606-0.603,1.59,0,2.196c0.302,0.302,0.697,0.454,1.092,0.454s0.791-0.152,1.092-0.454l10.915-10.973
			C40.917,19.382,40.917,18.399,40.314,17.793z M46.784,24.151c-0.604-0.606-1.581-0.606-2.185,0l-4.349,4.371
			c-0.603,0.606-0.603,1.59,0,2.195c0.302,0.303,0.696,0.455,1.093,0.455c0.395,0,0.79-0.152,1.092-0.455l4.349-4.371
			C47.387,25.741,47.387,24.758,46.784,24.151z"/>
	</g>
</g>
</svg>
