<?xml version="1.0" encoding="utf-8"?>
<!-- Generator: Adobe Illustrator 16.0.0, SVG Export Plug-In . SVG Version: 6.00 Build 0)  -->
<!DOCTYPE svg PUBLIC "-//W3C//DTD SVG 1.1//EN" "http://www.w3.org/Graphics/SVG/1.1/DTD/svg11.dtd">
<svg version="1.1" id="Слой_1" xmlns="http://www.w3.org/2000/svg" xmlns:xlink="http://www.w3.org/1999/xlink" x="0px" y="0px"
	 width="68.667px" height="70.5px" viewBox="0 0 68.667 70.5" enable-background="new 0 0 68.667 70.5" xml:space="preserve">
<g>
	<g>
		<path fill="#120919" d="M64.262,57.563L48.092,41.4c2.635-3.967,4.021-8.559,4.021-13.35c0-13.354-10.868-24.219-24.227-24.219
			C14.528,3.832,3.66,14.696,3.66,28.051s10.868,24.22,24.228,24.22c4.791,0,9.386-1.388,13.354-4.021l4.47,4.467
			c0,0.001,0.001,0.002,0.002,0.002L57.41,64.413c0.916,0.915,2.133,1.419,3.427,1.419c1.293,0,2.51-0.504,3.425-1.419
			c0.916-0.914,1.42-2.131,1.42-3.424C65.681,59.694,65.177,58.479,64.262,57.563z M40.671,45.697
			C40.671,45.697,40.671,45.697,40.671,45.697c-3.739,2.716-8.16,4.15-12.784,4.15c-12.023,0-21.805-9.778-21.805-21.797
			S15.864,6.254,27.887,6.254c12.022,0,21.805,9.778,21.805,21.797c0,4.623-1.437,9.042-4.152,12.78
			C44.181,42.702,42.543,44.34,40.671,45.697z M43.212,46.795c1.254-1.024,2.4-2.171,3.426-3.424l3.437,3.436
			c-1.045,1.233-2.191,2.38-3.426,3.425L43.212,46.795z M62.549,62.7c-0.458,0.459-1.066,0.71-1.713,0.71s-1.256-0.251-1.713-0.71
			L48.367,51.948c1.227-1.053,2.373-2.198,3.426-3.425l10.757,10.753c0.457,0.457,0.709,1.065,0.709,1.713
			C63.258,61.636,63.006,62.243,62.549,62.7z M27.887,8.676c-10.688,0-19.382,8.691-19.382,19.375S17.2,47.427,27.887,47.427
			c10.687,0,19.381-8.692,19.381-19.376S38.574,8.676,27.887,8.676z M27.887,45.005c-9.352,0-16.959-7.606-16.959-16.954
			c0-9.347,7.608-16.952,16.959-16.952c9.351,0,16.959,7.605,16.959,16.952C44.846,37.398,37.238,45.005,27.887,45.005z"/>
	</g>
</g>
<g>
	<g>
		<path fill="#E93749" d="M41.333,26.842c-0.669,0-1.212,0.542-1.212,1.21c0,0.669,0.543,1.211,1.212,1.211
			c0.668,0,1.211-0.542,1.211-1.211C42.544,27.384,42.001,26.842,41.333,26.842z M40.887,24.418
			c0.624-0.239,0.936-0.939,0.696-1.564c-1.043-2.713-2.859-5.034-5.253-6.71c-2.45-1.716-5.328-2.623-8.322-2.623
			c-0.669,0-1.211,0.542-1.211,1.211c0,0.669,0.542,1.211,1.211,1.211c4.979,0,9.525,3.126,11.313,7.78
			c0.185,0.48,0.644,0.776,1.131,0.776C40.597,24.499,40.744,24.474,40.887,24.418z"/>
	</g>
</g>
</svg>
