<svg xmlns="http://www.w3.org/2000/svg" width="15" height="16" viewBox="0 0 15 16">
  <defs>
    <style>
      .cls-1 {
        fill: #fff;
        fill-rule: evenodd;
      }
    </style>
  </defs>
  <path id="Forma_1" data-name="Forma 1" class="cls-1" d="M745.455,794.293A0.5,0.5,0,0,0,745,794h-2v-6.5a0.5,0.5,0,0,0-.5-0.5h-2a0.5,0.5,0,0,0-.5.5V794h-2a0.5,0.5,0,0,0-.376.829l3.5,4a0.5,0.5,0,0,0,.752,0l3.5-4A0.5,0.5,0,0,0,745.455,794.293ZM747,798v3H736v-3h-2v4a1,1,0,0,0,1,1h13a1,1,0,0,0,1-1v-4h-2Z" transform="translate(-734 -787)"/>
</svg>
