<svg xmlns="http://www.w3.org/2000/svg" width="50" height="50" viewBox="0 0 50 50">
  <defs>
    <style>
      .cls-1 {
        fill: #171719;
        fill-rule: evenodd;
      }
    </style>
  </defs>
  <path class="cls-1" d="M1490.44,1235.75l-3.51-.59a18.838,18.838,0,0,0-1.41-3.41l2.07-2.89a3.082,3.082,0,0,0-.33-3.98l-3.12-3.12a3.093,3.093,0,0,0-3.97-.33l-2.9,2.07a19,19,0,0,0-3.53-1.45l-0.59-3.47a3.084,3.084,0,0,0-3.05-2.58h-4.39a3.084,3.084,0,0,0-3.05,2.58l-0.61,3.55a19.793,19.793,0,0,0-3.39,1.43l-2.88-2.07a3.093,3.093,0,0,0-3.98.34l-3.12,3.11a3.1,3.1,0,0,0-.33,3.98l2.09,2.93a18.725,18.725,0,0,0-1.39,3.42l-3.47.58a3.092,3.092,0,0,0-2.58,3.05v4.4a3.084,3.084,0,0,0,2.58,3.05l3.55,0.61a19.793,19.793,0,0,0,1.43,3.39l-2.06,2.86a3.083,3.083,0,0,0,.34,3.98l3.11,3.12a3.1,3.1,0,0,0,2.18.91,3.014,3.014,0,0,0,1.79-.58l2.94-2.09a20.265,20.265,0,0,0,3.3,1.36l0.58,3.51a3.092,3.092,0,0,0,3.05,2.58h4.41a3.092,3.092,0,0,0,3.05-2.58l0.59-3.51a20.746,20.746,0,0,0,3.41-1.41l2.89,2.07a3.1,3.1,0,0,0,1.8.57h0a3.04,3.04,0,0,0,2.18-.91l3.11-3.11a3.084,3.084,0,0,0,.34-3.98l-2.07-2.9a19.012,19.012,0,0,0,1.41-3.41l3.51-.58a3.092,3.092,0,0,0,2.58-3.05v-4.4A3.047,3.047,0,0,0,1490.44,1235.75Zm-0.24,7.45a0.269,0.269,0,0,1-.23.27l-4.39.73a1.383,1.383,0,0,0-1.12,1.03,16.979,16.979,0,0,1-1.82,4.38,1.431,1.431,0,0,0,.06,1.54l2.58,3.63a0.3,0.3,0,0,1-.03.36l-3.11,3.11a0.288,0.288,0,0,1-.2.08,0.277,0.277,0,0,1-.16-0.05l-3.62-2.58a1.411,1.411,0,0,0-1.54-.06,16.684,16.684,0,0,1-4.37,1.81,1.4,1.4,0,0,0-1.04,1.13l-0.74,4.39a0.269,0.269,0,0,1-.27.23h-4.4a0.269,0.269,0,0,1-.27-0.23l-0.73-4.39a1.42,1.42,0,0,0-1.04-1.13,17.293,17.293,0,0,1-4.28-1.75,1.4,1.4,0,0,0-.71-0.19,1.418,1.418,0,0,0-.81.26l-3.66,2.6a0.245,0.245,0,0,1-.16.06,0.248,0.248,0,0,1-.19-0.09l-3.12-3.11a0.3,0.3,0,0,1-.03-0.36l2.57-3.6a1.393,1.393,0,0,0,.06-1.54,16.46,16.46,0,0,1-1.83-4.37,1.436,1.436,0,0,0-1.13-1.03l-4.42-.76a0.262,0.262,0,0,1-.23-0.27v-4.4a0.269,0.269,0,0,1,.23-0.27l4.36-.73a1.393,1.393,0,0,0,1.13-1.04,16.963,16.963,0,0,1,1.79-4.39,1.4,1.4,0,0,0-.07-1.52l-2.6-3.66a0.276,0.276,0,0,1,.03-0.36l3.11-3.11a0.274,0.274,0,0,1,.2-0.08,0.3,0.3,0,0,1,.16.05l3.6,2.57a1.431,1.431,0,0,0,1.54.06,16.968,16.968,0,0,1,4.37-1.84,1.409,1.409,0,0,0,1.03-1.12l0.76-4.42a0.262,0.262,0,0,1,.27-0.23h4.4a0.269,0.269,0,0,1,.27.23l0.73,4.35a1.392,1.392,0,0,0,1.04,1.14,17.2,17.2,0,0,1,4.48,1.84,1.431,1.431,0,0,0,1.54-.06l3.6-2.59a0.368,0.368,0,0,1,.16-0.05,0.3,0.3,0,0,1,.2.08l3.11,3.11a0.286,0.286,0,0,1,.03.36l-2.58,3.62a1.431,1.431,0,0,0-.06,1.54,16.913,16.913,0,0,1,1.82,4.37,1.379,1.379,0,0,0,1.12,1.04l4.39,0.74a0.262,0.262,0,0,1,.23.27v4.4h-0.01Zm-22.19-13a10.79,10.79,0,1,0,10.79,10.79A10.8,10.8,0,0,0,1468.01,1230.2Zm0,18.76a7.97,7.97,0,1,1,7.96-7.97A7.972,7.972,0,0,1,1468.01,1248.96Z" transform="translate(-1443 -1216)"/>
</svg>
