<svg xmlns="http://www.w3.org/2000/svg" width="56" height="50" viewBox="0 0 56 50">
  <defs>
    <style>
      .cls-1 {
        fill: #171719;
        fill-rule: evenodd;
      }
    </style>
  </defs>
  <path class="cls-1" d="M469.619,1216H420.38a3.388,3.388,0,0,0-3.38,3.39v34.07a3.388,3.388,0,0,0,3.38,3.39h16.873v2.46a4.1,4.1,0,0,1-4.09,4.1h-3.718a1.3,1.3,0,0,0,0,2.59h31.11a1.3,1.3,0,0,0,0-2.59h-3.719a4.1,4.1,0,0,1-4.089-4.1v-2.46h16.872a3.389,3.389,0,0,0,3.381-3.39v-34.07A3.389,3.389,0,0,0,469.619,1216Zm-31.191,47.41a6.645,6.645,0,0,0,1.407-4.1v-2.46h10.33v2.46a6.644,6.644,0,0,0,1.406,4.1H438.428Zm31.99-9.95a0.8,0.8,0,0,1-.8.8H420.38a0.8,0.8,0,0,1-.8-0.8v-6.8h50.836v6.8Zm0-9.39H419.582v-24.68a0.8,0.8,0,0,1,.8-0.8h49.238a0.8,0.8,0,0,1,.8.8v24.68h0ZM445,1249.06a1.4,1.4,0,1,1-1.393,1.4,1.4,1.4,0,0,1,1.393-1.4" transform="translate(-417 -1216)"/>
</svg>
