<svg xmlns="http://www.w3.org/2000/svg" style="display:none"><defs><style>.cls-1{fill:#28d07b;fill-rule:evenodd}</style><style>.cls-1{fill:#fff;fill-rule:evenodd}</style><style>.cls-1{fill:#b4a067;fill-rule:evenodd}</style><style>.cls-1{fill:#fff;fill-rule:evenodd}</style><style>.cls-1{fill-rule:evenodd}</style><style>.cls-1{fill:#170823;fill-rule:evenodd}</style></defs><symbol id="check-icon" viewBox="0 0 30.031 23"><path id="Forma_1_copy_20" data-name="Forma 1 copy 20" class="cls-1" d="M719.346 516.65a1.111 1.111 0 0 1 0-1.611l1.615-1.61a1.119 1.119 0 0 1 1.616 0l.115.115 6.346 6.786a.559.559 0 0 0 .808 0l15.461-15.986h.116a1.118 1.118 0 0 1 1.615 0l1.615 1.61a1.108 1.108 0 0 1 0 1.61l-18.461 19.091a1.118 1.118 0 0 1-1.615 0l-9-9.66z" transform="translate(-719 -504)"/></symbol><symbol id="clip-icon" viewBox="0 0 16 29"><path id="Forma_1" data-name="Forma 1" class="cls-1" d="M838 4402.97a8 8 0 0 1 16 0v15.23a5.818 5.818 0 0 1-11.636 0v-12.33a3.636 3.636 0 0 1 7.272 0v10.88h-2.182v-10.88a1.455 1.455 0 0 0-2.909 0v12.33a3.637 3.637 0 0 0 7.273 0v-15.23a5.818 5.818 0 0 0-11.636 0v13.78H838v-13.78z" transform="translate(-838 -4395)"/></symbol><symbol id="contacts-icon-email" viewBox="0 0 26 26"><path data-name="Forma 1" d="M13 0a13 13 0 1 0 13 13A13 13 0 0 0 13 0zm5.857 7.222L13 11.856 6.948 7.222h11.914zm.6 11.555H6.339v-9.6l6.048 4.588a1.046 1.046 0 0 0 .6.185.835.835 0 0 0 .534-.194l5.943-4.728v9.747z"/></symbol><symbol id="contacts-icon-phone" viewBox="0 0 26 26"><path id="Forma_1_copy" data-name="Forma 1 copy" class="cls-1" d="M191 885a12.991 12.991 0 0 0-10.522 20.619l-1.62 4.83 5-1.6A12.882 12.882 0 0 0 191 911a13 13 0 0 0 0-26zm7.564 18.357a3.667 3.667 0 0 1-2.551 1.835c-.679.144-1.566.26-4.553-.978-3.82-1.583-6.281-5.465-6.472-5.717a7.423 7.423 0 0 1-1.544-3.921 4.149 4.149 0 0 1 1.329-3.164 1.89 1.89 0 0 1 1.329-.466c.161 0 .306.008.436.014a.755.755 0 0 1 .825.642c.314.756 1.078 2.621 1.169 2.813a.777.777 0 0 1 .055.7 2.242 2.242 0 0 1-.421.6c-.192.221-.374.39-.565.627a.612.612 0 0 0-.153.81 11.568 11.568 0 0 0 2.109 2.62 9.572 9.572 0 0 0 3.049 1.881.821.821 0 0 0 .916-.145 15.961 15.961 0 0 0 1.016-1.345.725.725 0 0 1 .932-.283c.352.122 2.209 1.04 2.591 1.23a1.877 1.877 0 0 1 .726.443 3.236 3.236 0 0 1-.22 1.804z" transform="translate(-178 -885)"/></symbol><symbol id="contacts-icon-skype" viewBox="0 0 26 26"><path id="Forma_1" data-name="Forma 1" class="cls-1" d="M146.914 899.882a12.057 12.057 0 0 0-13.8-13.8 7.291 7.291 0 0 0-10.032 10.033 12.287 12.287 0 0 0-.147 1.882 12.072 12.072 0 0 0 13.944 11.915 7.29 7.29 0 0 0 10.035-10.03zm-6.188 3.6a4.991 4.991 0 0 1-2.239 1.721 8.9 8.9 0 0 1-3.481.62 8.324 8.324 0 0 1-3.984-.847 5.158 5.158 0 0 1-1.814-1.632 3.539 3.539 0 0 1-.7-2 1.325 1.325 0 0 1 .431-.988 1.528 1.528 0 0 1 1.094-.41 1.371 1.371 0 0 1 .916.32 2.453 2.453 0 0 1 .627.934 5.9 5.9 0 0 0 .662 1.188 2.616 2.616 0 0 0 .992.777 3.908 3.908 0 0 0 1.69.308 4.04 4.04 0 0 0 2.339-.62 1.8 1.8 0 0 0 .887-1.53 1.534 1.534 0 0 0-.473-1.175 3.153 3.153 0 0 0-1.251-.7q-.774-.246-2.079-.521a16.289 16.289 0 0 1-2.934-.891 4.765 4.765 0 0 1-1.889-1.4 3.48 3.48 0 0 1-.7-2.214 3.606 3.606 0 0 1 .741-2.236 4.618 4.618 0 0 1 2.136-1.5 9.3 9.3 0 0 1 3.269-.522 8.7 8.7 0 0 1 2.6.345 5.722 5.722 0 0 1 1.825.922 3.941 3.941 0 0 1 1.065 1.212 2.655 2.655 0 0 1 .339 1.246 1.453 1.453 0 0 1-.431 1.018 1.422 1.422 0 0 1-1.074.451 1.3 1.3 0 0 1-.893-.275 3.547 3.547 0 0 1-.647-.871 3.882 3.882 0 0 0-1.047-1.311 3.224 3.224 0 0 0-1.956-.464 3.6 3.6 0 0 0-2.02.508 1.439 1.439 0 0 0-.756 1.2 1.152 1.152 0 0 0 .253.745 2.145 2.145 0 0 0 .713.55 5.054 5.054 0 0 0 .929.365c.315.09.839.219 1.568.39q1.37.3 2.487.657a7.8 7.8 0 0 1 1.9.878 3.7 3.7 0 0 1 1.235 1.317 3.944 3.944 0 0 1 .444 1.947 4.223 4.223 0 0 1-.774 2.49z" transform="translate(-122 -885)"/></symbol><symbol id="contacts-icon-vk" viewBox="0 0 30 30"><path id="Forma_1" data-name="Forma 1" class="cls-1" d="M1079 2833a15 15 0 1 0 15 15 15.005 15.005 0 0 0-15-15zm7.61 16.62c.7.69 1.44 1.33 2.07 2.08a5.617 5.617 0 0 1 .73 1.07.76.76 0 0 1-.46 1.19h-3.08a2.388 2.388 0 0 1-1.95-.8c-.43-.43-.82-.89-1.23-1.34a3.167 3.167 0 0 0-.55-.49.644.644 0 0 0-1.03.25 3.185 3.185 0 0 0-.32 1.43.823.823 0 0 1-.98.95 7.937 7.937 0 0 1-4.4-.95 9.666 9.666 0 0 1-2.96-2.77 37.492 37.492 0 0 1-3.89-6.94c-.25-.55-.07-.84.54-.85q1.5-.03 3 0a.885.885 0 0 1 .84.62 18.9 18.9 0 0 0 2.04 3.78 3.284 3.284 0 0 0 .77.85.465.465 0 0 0 .79-.24 2.391 2.391 0 0 0 .18-.79 11.757 11.757 0 0 0-.05-2.78 1.151 1.151 0 0 0-.98-1.06c-.3-.05-.25-.16-.11-.33a1.107 1.107 0 0 1 .94-.47h3.47a.832.832 0 0 1 .75.9v3.86a1.124 1.124 0 0 0 .49.99.681.681 0 0 0 .69-.34 11.727 11.727 0 0 0 1.96-3.01c.23-.47.44-.96.63-1.46a.771.771 0 0 1 .79-.54l3.34.01a1.514 1.514 0 0 1 .3.02.571.571 0 0 1 .54.88 8.179 8.179 0 0 1-1.33 2.31c-.56.77-1.15 1.51-1.7 2.29a1.044 1.044 0 0 0 .16 1.68z" transform="translate(-1064 -2833)"/></symbol><symbol id="icon-loader" viewBox="0 0 15.063 19"><path class="cls-1" d="M.049 10.14a7.088 7.088 0 0 1 .248-2.87 7.376 7.376 0 0 1 7-5.22V.1a.141.141 0 0 1 .229-.1l4.086 2.95a.115.115 0 0 1 0 .19L7.53 6.09a.14.14 0 0 1-.229-.1V4.04a5.359 5.359 0 0 0-4.839 3.23 5.089 5.089 0 0 0-.414 2.3 5.19 5.19 0 0 0 1.166 2.99.986.986 0 0 1-.193 1.43 1.044 1.044 0 0 1-1.411-.19 7.114 7.114 0 0 1-1.561-3.66zm11.8-3.75a5.131 5.131 0 0 1 .753 5.3 5.35 5.35 0 0 1-4.839 3.22v-1.95a.141.141 0 0 0-.229-.1l-4.086 2.95a.125.125 0 0 0 0 .2l4.082 2.95a.147.147 0 0 0 .229-.11V16.9a7.363 7.363 0 0 0 7-5.21 7.208 7.208 0 0 0 .248-2.88 7.045 7.045 0 0 0-1.556-3.65 1.036 1.036 0 0 0-1.411-.2.988.988 0 0 0-.193 1.43z"/></symbol><symbol id="services-icon-01" viewBox="0 0 75.167 70.5"><path class="path1" d="M67.456 7H8.545C6.315 7 4.5 8.823 4.5 11.065v40.886c0 2.242 1.814 4.065 4.044 4.065h20.187v2.959c0 2.712-2.195 4.918-4.893 4.918H19.39c-.853 0-1.544.695-1.544 1.553s.691 1.553 1.544 1.553h37.22c.854 0 1.545-.695 1.545-1.553s-.691-1.553-1.545-1.553h-4.449c-2.697 0-4.893-2.206-4.893-4.918v-2.959h20.187c2.23 0 4.045-1.823 4.045-4.065V11.065C71.501 8.823 69.687 7 67.456 7zM30.138 63.895a8.005 8.005 0 0 0 1.683-4.919v-2.959H44.18v2.959c0 1.854.63 3.56 1.683 4.919H30.138zm38.273-11.944a.96.96 0 0 1-.955.961H8.545a.96.96 0 0 1-.956-.961v-8.16h60.822v8.16zm0-11.264H7.589V11.065a.96.96 0 0 1 .956-.96h58.911a.96.96 0 0 1 .955.96v29.622z"/><path class="path2" d="M37.667 46.773c-.921 0-1.667.75-1.667 1.676 0 .925.746 1.676 1.667 1.676.92 0 1.666-.751 1.666-1.676a1.67 1.67 0 0 0-1.666-1.676zm2.647-28.98a1.54 1.54 0 0 0-2.184 0L27.215 28.766a1.559 1.559 0 0 0 0 2.196 1.54 1.54 0 0 0 2.184 0l10.915-10.973a1.559 1.559 0 0 0 0-2.196zm6.47 6.358a1.54 1.54 0 0 0-2.185 0l-4.349 4.371a1.558 1.558 0 0 0 0 2.195 1.536 1.536 0 0 0 2.185 0l4.349-4.371a1.558 1.558 0 0 0 0-2.195z"/></symbol><symbol id="services-icon-02" viewBox="0 0 68.667 70.5"><path fill="#120919" d="M64.262 57.563L48.092 41.4a23.989 23.989 0 0 0 4.021-13.35c0-13.354-10.868-24.219-24.227-24.219C14.528 3.832 3.66 14.696 3.66 28.051s10.868 24.22 24.228 24.22a24.02 24.02 0 0 0 13.354-4.021l4.47 4.467.002.002L57.41 64.413a4.818 4.818 0 0 0 3.427 1.419c1.293 0 2.51-.504 3.425-1.419a4.806 4.806 0 0 0 1.42-3.424 4.819 4.819 0 0 0-1.42-3.426zM40.671 45.697a21.616 21.616 0 0 1-12.784 4.15c-12.023 0-21.805-9.778-21.805-21.797S15.864 6.254 27.887 6.254c12.022 0 21.805 9.778 21.805 21.797 0 4.623-1.437 9.042-4.152 12.78a21.886 21.886 0 0 1-4.869 4.866zm2.541 1.098a24.261 24.261 0 0 0 3.426-3.424l3.437 3.436a29.317 29.317 0 0 1-3.426 3.425l-3.437-3.437zM62.549 62.7c-.458.459-1.066.71-1.713.71s-1.256-.251-1.713-.71L48.367 51.948a31.836 31.836 0 0 0 3.426-3.425L62.55 59.276c.457.457.709 1.065.709 1.713a2.408 2.408 0 0 1-.71 1.711zM27.887 8.676c-10.688 0-19.382 8.691-19.382 19.375S17.2 47.427 27.887 47.427c10.687 0 19.381-8.692 19.381-19.376S38.574 8.676 27.887 8.676zm0 36.329c-9.352 0-16.959-7.606-16.959-16.954 0-9.347 7.608-16.952 16.959-16.952 9.351 0 16.959 7.605 16.959 16.952 0 9.347-7.608 16.954-16.959 16.954z"/><path fill="#E93749" d="M41.333 26.842a1.211 1.211 0 1 0-.001 2.423 1.211 1.211 0 0 0 .001-2.423zm-.446-2.424a1.21 1.21 0 0 0 .696-1.564 14.533 14.533 0 0 0-5.253-6.71 14.435 14.435 0 0 0-8.322-2.623 1.21 1.21 0 1 0 0 2.422c4.979 0 9.525 3.126 11.313 7.78a1.213 1.213 0 0 0 1.566.695z"/></symbol><symbol id="services-icon-03" viewBox="0 0 70.834 70.5"><path fill="#120919" d="M64.174 28.427l-4.563-.774a25.728 25.728 0 0 0-1.833-4.426l2.688-3.761a4.003 4.003 0 0 0-.435-5.174l-4.046-4.046a3.986 3.986 0 0 0-2.838-1.182c-.842 0-1.644.258-2.322.747l-3.775 2.688c-1.466-.773-3-1.412-4.589-1.887L41.7 6.104a4.011 4.011 0 0 0-3.965-3.354H32.02a4.011 4.011 0 0 0-3.965 3.354l-.787 4.617a25.05 25.05 0 0 0-4.413 1.86L19.12 9.892a3.984 3.984 0 0 0-2.336-.747 3.967 3.967 0 0 0-2.838 1.182l-4.06 4.046a4.02 4.02 0 0 0-.435 5.173l2.716 3.815a25.196 25.196 0 0 0-1.807 4.44l-4.508.76A4.013 4.013 0 0 0 2.5 32.527v5.716a4.012 4.012 0 0 0 3.354 3.966l4.617.787a25.125 25.125 0 0 0 1.86 4.413L9.656 51.13a4.002 4.002 0 0 0 .434 5.173l4.047 4.046a3.987 3.987 0 0 0 5.16.436l3.815-2.716a25.59 25.59 0 0 0 4.291 1.765l.76 4.563a4.012 4.012 0 0 0 3.966 3.354h5.729a4.011 4.011 0 0 0 3.965-3.354l.774-4.563a25.894 25.894 0 0 0 4.427-1.832l3.761 2.688c.68.489 1.494.747 2.336.747a3.986 3.986 0 0 0 2.838-1.182l4.046-4.046a4.019 4.019 0 0 0 .435-5.173l-2.688-3.775a25.515 25.515 0 0 0 1.833-4.427l4.563-.761a4.01 4.01 0 0 0 3.354-3.965v-5.717a3.965 3.965 0 0 0-3.328-3.964zm-.313 9.68a.351.351 0 0 1-.299.353l-5.703.951a1.824 1.824 0 0 0-1.466 1.345 21.757 21.757 0 0 1-2.363 5.688 1.837 1.837 0 0 0 .082 1.996l3.354 4.726a.37.37 0 0 1-.04.462l-4.047 4.047a.344.344 0 0 1-.258.108.34.34 0 0 1-.204-.067l-4.712-3.354a1.836 1.836 0 0 0-1.996-.082 21.66 21.66 0 0 1-5.689 2.362 1.805 1.805 0 0 0-1.344 1.467l-.964 5.703a.352.352 0 0 1-.354.299h-5.716a.353.353 0 0 1-.354-.299l-.95-5.703a1.825 1.825 0 0 0-1.345-1.467 22.56 22.56 0 0 1-5.567-2.28 1.876 1.876 0 0 0-.923-.245c-.367 0-.747.109-1.06.34l-4.753 3.381a.4.4 0 0 1-.203.068.364.364 0 0 1-.258-.109l-4.047-4.045a.37.37 0 0 1-.04-.463l3.34-4.685a1.859 1.859 0 0 0 .081-2.01 21.563 21.563 0 0 1-2.39-5.675 1.857 1.857 0 0 0-1.466-1.345l-5.744-.978a.352.352 0 0 1-.299-.354v-5.716c0-.177.122-.326.299-.354l5.662-.951a1.834 1.834 0 0 0 1.48-1.357 21.707 21.707 0 0 1 2.321-5.703 1.811 1.811 0 0 0-.095-1.982l-3.381-4.753a.368.368 0 0 1 .041-.462l4.046-4.046a.345.345 0 0 1 .462-.04l4.685 3.339a1.86 1.86 0 0 0 2.01.083 21.47 21.47 0 0 1 5.676-2.39 1.86 1.86 0 0 0 1.344-1.466l.978-5.744a.352.352 0 0 1 .354-.299h5.717c.177 0 .326.122.354.299l.95 5.662c.122.72.651 1.304 1.357 1.48a22.044 22.044 0 0 1 5.825 2.389c.625.367 1.398.34 1.996-.081l4.685-3.368a.403.403 0 0 1 .204-.068c.054 0 .163.014.258.109l4.047 4.046a.369.369 0 0 1 .04.461l-3.354 4.711a1.838 1.838 0 0 0-.082 1.997 21.696 21.696 0 0 1 2.363 5.689c.177.706.76 1.236 1.466 1.345l5.703.964a.352.352 0 0 1 .299.353v5.717h-.013z"/><path fill="#E93749" d="M35 21.224c-7.739 0-14.026 6.286-14.026 14.025 0 7.74 6.287 14.027 14.026 14.027 7.74 0 14.027-6.287 14.027-14.027 0-7.739-6.287-14.025-14.027-14.025zm0 24.386c-5.717 0-10.36-4.643-10.36-10.361 0-5.716 4.644-10.359 10.36-10.359s10.36 4.644 10.36 10.359c0 5.719-4.643 10.361-10.36 10.361z"/></symbol><symbol id="temp-icon-left-arrow" viewBox="0 0 31.494 31.494"><path d="M10.273 5.01a1.117 1.117 0 0 1 1.587 1.57l-8.047 8.047h26.554c.62 0 1.127.492 1.127 1.11 0 .62-.508 1.128-1.127 1.128H3.813l8.047 8.032c.43.444.43 1.16 0 1.587a1.112 1.112 0 0 1-1.587 0L.32 16.532a1.12 1.12 0 0 1 0-1.57l9.953-9.953z" fill="#1E201D"/></symbol><symbol id="temp-icon-right-arrow" viewBox="0 0 31.49 31.49"><path d="M21.205 5.007a1.117 1.117 0 0 0-1.587 1.57l8.047 8.048H1.11c-.618 0-1.11.493-1.11 1.112 0 .62.492 1.127 1.11 1.127h26.555l-8.047 8.032c-.43.444-.43 1.16 0 1.587.444.444 1.16.444 1.587 0l9.952-9.952a1.092 1.092 0 0 0 0-1.57l-9.952-9.95z" fill="#b4a067"/></symbol></svg>